<?xml version="1.0" encoding="utf-8"?>
<!-- Generator: Adobe Illustrator 25.2.1, SVG Export Plug-In . SVG Version: 6.00 Build 0)  -->
<svg version="1.1" id="katman_1" xmlns="http://www.w3.org/2000/svg" xmlns:xlink="http://www.w3.org/1999/xlink" x="0px" y="0px"
	 viewBox="0 0 512 512" style="enable-background:new 0 0 512 512;" xml:space="preserve">
<style type="text/css">
	.st0{fill:#3B97D3;}
</style>
<g>
	<path class="st0" d="M352.88,57.62c10.14,0.02,20.4,5.97,25.52,14.8l96.88,168.74c5.06,8.88,5.06,20.8,0.01,29.66l-96.88,168.74
		c-5.12,8.84-15.38,14.8-25.52,14.82H159.13c-10.14-0.02-20.41-5.98-25.53-14.8L36.72,270.84c-5.05-8.88-5.05-20.81-0.01-29.67
		l96.87-168.73c5.13-8.84,15.4-14.8,25.53-14.83H352.88 M206.36,256l-53.7,96.19c-1.74,3.06-1.66,6.96,0.22,10.2
		c1.88,3.26,5.25,5.28,8.78,5.28l0.03,0h33.42l0.26-0.01c3.63-0.16,6.94-2.24,8.66-5.44l51.96-92.84l51.84,92.84
		c1.76,3.26,5.27,5.39,8.98,5.44l0.08,0h33.42l0,0l0.03,0c3.53,0,6.89-2.02,8.77-5.27c1.87-3.24,1.95-7.15,0.21-10.21L305.63,256
		l53.7-96.35l0.06-0.12c1.64-3.11,1.49-6.87-0.42-10.07c-1.9-3.18-5.12-5.1-8.66-5.12h-33.42v0l-0.06,0c-3.66,0-7.08,1.97-8.92,5.15
		l-0.05,0.09l-51.86,92.9l-52-92.9l-0.04-0.07c-1.81-3.14-5.17-5.12-8.77-5.17l-0.09,0h-33.15c-0.23-0.02-0.45-0.02-0.68-0.02
		c-0.39,0-0.77,0.02-1.15,0.07l-0.37,0.06c-3.14,0.59-5.87,2.77-7.3,5.81c-1.44,3.06-1.37,6.56,0.2,9.39L206.36,256 M352.89,51.62
		H159.11c-12.37,0.03-24.48,7.07-30.72,17.82L31.51,238.19c-6.13,10.77-6.13,24.85,0,35.62l96.89,168.76
		c6.24,10.75,18.35,17.79,30.72,17.82h193.77c12.37-0.03,24.48-7.07,30.71-17.82l96.89-168.76c6.14-10.77,6.14-24.85,0-35.62
		L383.6,69.43C377.37,58.69,365.26,51.64,352.89,51.62L352.89,51.62z M161.66,361.66c-3.02,0-5.28-3.9-3.77-6.53l55.35-99.13
		l-55.35-99.27c-1.32-2.4,0.29-5.88,2.98-6.39c0.13-0.02,0.27-0.02,0.4-0.02c0.14,0,0.28,0.01,0.41,0.02h33.42
		c1.49,0.02,2.92,0.89,3.65,2.17l56.7,101.31c0.28,0.5,0.47,1.06,0.53,1.63c0.08-0.56,0.26-1.13,0.54-1.63l56.56-101.31
		c0.76-1.31,2.23-2.17,3.74-2.17c0.02,0,0.04,0,0.06,0h33.42c2.96,0.02,5.17,3.76,3.78,6.39l-55.33,99.27l55.33,99.13
		c1.51,2.63-0.74,6.53-3.76,6.53c-0.01,0-0.02,0-0.03,0h-33.42c-1.55-0.02-3.07-0.94-3.8-2.32l-56.56-101.3
		c-0.28-0.51-0.47-1.06-0.54-1.64c-0.07,0.57-0.25,1.13-0.53,1.64l-56.7,101.3c-0.7,1.34-2.15,2.26-3.65,2.32h-33.42
		C161.68,361.66,161.67,361.66,161.66,361.66L161.66,361.66z"/>
</g>
</svg>
